<svg width="1842" height="61" viewBox="0 0 1842 61" fill="none" xmlns="http://www.w3.org/2000/svg">
<path d="M10.897 32.9623L5.50637 32.9768L5.51537 36.3654L11.8825 36.3484L11.8895 38.9851L2.09464 39.0113L2.05691 24.7926L11.8713 24.7663L11.8783 27.4128L5.49165 27.4299L5.49961 30.428L10.8902 30.4135L10.897 32.9623ZM25.961 38.9474L22.5528 38.9565L17.4902 30.1224L17.5137 38.97L14.086 38.9792L14.0483 24.7605L17.476 24.7513L22.5287 33.5854L22.5053 24.7378L25.9232 24.7287L25.961 38.9474ZM40.9648 37.1493C40.439 37.7367 39.6688 38.2107 38.6541 38.5715C37.6395 38.9323 36.5267 39.1143 35.3157 39.1176C33.4538 39.1226 31.9646 38.5569 30.8483 37.4206C29.732 36.2842 29.1321 34.7006 29.0486 32.6695L29.0356 31.4391C29.0319 30.0393 29.276 28.818 29.768 27.775C30.2601 26.7255 30.9643 25.9196 31.8808 25.3572C32.8037 24.7883 33.8707 24.5023 35.0816 24.499C36.8525 24.4943 38.2272 24.8975 39.206 25.7087C40.1912 26.5133 40.7673 27.7195 40.9343 29.3271L37.6335 29.3359C37.5142 28.542 37.2588 27.9763 36.8673 27.6388C36.4758 27.3013 35.922 27.1335 35.2058 27.1354C34.3464 27.1377 33.6834 27.5041 33.2165 28.2345C32.7497 28.9649 32.5149 30.0072 32.5119 31.3614L32.5142 32.2208C32.518 33.64 32.7617 34.7071 33.2454 35.422C33.7355 36.1303 34.5015 36.483 35.5431 36.4802C36.435 36.4779 37.0986 36.2775 37.5337 35.8792L37.5279 33.6722L35.1451 33.6786L35.1388 31.3251L40.9493 31.3095L40.9648 37.1493Z" fill="white"/>
<path d="M10.897 32.9623L10.8996 33.9623L11.8996 33.9596L11.897 32.9596L10.897 32.9623ZM5.50637 32.9768L5.50372 31.9768L4.50372 31.9795L4.50638 32.9795L5.50637 32.9768ZM5.51537 36.3654L4.51537 36.3681L4.51802 37.3681L5.51802 37.3654L5.51537 36.3654ZM11.8825 36.3484L12.8825 36.3457L12.8799 35.3457L11.8799 35.3484L11.8825 36.3484ZM11.8895 38.9851L11.8922 39.9851L12.8922 39.9824L12.8895 38.9824L11.8895 38.9851ZM2.09464 39.0113L1.09464 39.014L1.0973 40.014L2.09729 40.0113L2.09464 39.0113ZM2.05691 24.7926L2.05425 23.7926L1.05426 23.7953L1.05691 24.7953L2.05691 24.7926ZM11.8713 24.7663L12.8713 24.7636L12.8687 23.7636L11.8687 23.7663L11.8713 24.7663ZM11.8783 27.4128L11.881 28.4128L12.881 28.4101L12.8783 27.4101L11.8783 27.4128ZM5.49165 27.4299L5.489 26.4299L4.489 26.4326L4.49165 27.4326L5.49165 27.4299ZM5.49961 30.428L4.49961 30.4306L4.50227 31.4306L5.50226 31.428L5.49961 30.428ZM10.8902 30.4135L11.8902 30.4108L11.8876 29.4108L10.8876 29.4135L10.8902 30.4135ZM10.8943 31.9623L5.50372 31.9768L5.50903 33.9768L10.8996 33.9623L10.8943 31.9623ZM4.50638 32.9795L4.51537 36.3681L6.51536 36.3628L6.50637 32.9741L4.50638 32.9795ZM5.51802 37.3654L11.8852 37.3484L11.8799 35.3484L5.51271 35.3654L5.51802 37.3654ZM10.8825 36.3511L10.8895 38.9878L12.8895 38.9824L12.8825 36.3457L10.8825 36.3511ZM11.8869 37.9851L2.09199 38.0113L2.09729 40.0113L11.8922 39.9851L11.8869 37.9851ZM3.09464 39.0087L3.0569 24.79L1.05691 24.7953L1.09464 39.014L3.09464 39.0087ZM2.05956 25.7926L11.874 25.7663L11.8687 23.7663L2.05425 23.7926L2.05956 25.7926ZM10.8713 24.769L10.8784 27.4155L12.8783 27.4101L12.8713 24.7636L10.8713 24.769ZM11.8757 26.4128L5.489 26.4299L5.49431 28.4299L11.881 28.4128L11.8757 26.4128ZM4.49165 27.4326L4.49961 30.4306L6.4996 30.4253L6.49165 27.4272L4.49165 27.4326ZM5.50226 31.428L10.8929 31.4135L10.8876 29.4135L5.49695 29.428L5.50226 31.428ZM9.89022 30.4162L9.89698 32.965L11.897 32.9596L11.8902 30.4108L9.89022 30.4162ZM25.961 38.9474L25.9636 39.9474L26.9636 39.9447L26.961 38.9447L25.961 38.9474ZM22.5528 38.9565L21.6851 39.4537L21.9741 39.958L22.5554 39.9565L22.5528 38.9565ZM17.4902 30.1224L18.3579 29.6251L16.4802 26.3486L16.4902 30.1251L17.4902 30.1224ZM17.5137 38.97L17.5164 39.97L18.5164 39.9673L18.5137 38.9673L17.5137 38.97ZM14.086 38.9792L13.086 38.9819L13.0887 39.9819L14.0887 39.9792L14.086 38.9792ZM14.0483 24.7605L14.0456 23.7605L13.0456 23.7632L13.0483 24.7632L14.0483 24.7605ZM17.476 24.7513L18.344 24.2548L18.0552 23.7497L17.4733 23.7513L17.476 24.7513ZM22.5287 33.5854L21.6607 34.0819L23.5388 37.3655L23.5287 33.5828L22.5287 33.5854ZM22.5053 24.7378L22.5026 23.7378L21.5026 23.7405L21.5053 24.7405L22.5053 24.7378ZM25.9232 24.7287L26.9232 24.726L26.9206 23.726L25.9206 23.7287L25.9232 24.7287ZM25.9583 37.9474L22.5501 37.9565L22.5554 39.9565L25.9636 39.9474L25.9583 37.9474ZM23.4204 38.4593L18.3579 29.6251L16.6226 30.6196L21.6851 39.4537L23.4204 38.4593ZM16.4902 30.1251L16.5137 38.9727L18.5137 38.9673L18.4902 30.1197L16.4902 30.1251ZM17.5111 37.97L14.0833 37.9792L14.0887 39.9792L17.5164 39.97L17.5111 37.97ZM15.086 38.9765L15.0483 24.7578L13.0483 24.7632L13.086 38.9819L15.086 38.9765ZM14.0509 25.7605L17.4786 25.7513L17.4733 23.7513L14.0456 23.7605L14.0509 25.7605ZM16.6079 25.2478L21.6607 34.0819L23.3968 33.0889L18.344 24.2548L16.6079 25.2478ZM23.5287 33.5828L23.5053 24.7351L21.5053 24.7405L21.5288 33.5881L23.5287 33.5828ZM22.5079 25.7378L25.9259 25.7287L25.9206 23.7287L22.5026 23.7378L22.5079 25.7378ZM24.9232 24.7313L24.961 38.95L26.961 38.9447L26.9232 24.726L24.9232 24.7313ZM40.9648 37.1493L41.7099 37.8163L41.9658 37.5304L41.9648 37.1466L40.9648 37.1493ZM29.0486 32.6695L28.0487 32.6801L28.0488 32.6954L28.0495 32.7106L29.0486 32.6695ZM29.0356 31.4391L28.0355 31.4418L28.0356 31.4497L29.0356 31.4391ZM29.768 27.775L30.6725 28.2016L30.6735 28.1995L29.768 27.775ZM31.8808 25.3572L32.4038 26.2095L32.4055 26.2085L31.8808 25.3572ZM39.206 25.7087L38.5678 26.4786L38.5734 26.4832L39.206 25.7087ZM40.9343 29.3271L40.937 30.3271L42.0433 30.3241L41.929 29.2237L40.9343 29.3271ZM37.6335 29.3359L36.6446 29.4846L36.7729 30.3383L37.6362 30.3359L37.6335 29.3359ZM33.2165 28.2345L34.0592 28.773L33.2165 28.2345ZM32.5119 31.3614L31.5119 31.3593L31.5119 31.3641L32.5119 31.3614ZM33.2454 35.422L32.4171 35.9824L32.4231 35.991L33.2454 35.422ZM37.5337 35.8792L38.2089 36.6168L38.5349 36.3185L38.5337 35.8765L37.5337 35.8792ZM37.5279 33.6722L38.5279 33.6695L38.5252 32.6695L37.5252 32.6722L37.5279 33.6722ZM35.1451 33.6786L34.1451 33.6813L34.1477 34.6812L35.1477 34.6786L35.1451 33.6786ZM35.1388 31.3251L35.1362 30.3251L34.1362 30.3277L34.1388 31.3277L35.1388 31.3251ZM40.9493 31.3095L41.9493 31.3068L41.9467 30.3068L40.9467 30.3095L40.9493 31.3095ZM40.2198 36.4823C39.8389 36.9078 39.2313 37.305 38.3191 37.6293L38.9892 39.5137C40.1063 39.1165 41.0392 38.5655 41.7099 37.8163L40.2198 36.4823ZM38.3191 37.6293C37.4236 37.9478 36.4247 38.1146 35.3131 38.1176L35.3184 40.1176C36.6286 40.1141 37.8554 39.9169 38.9892 39.5137L38.3191 37.6293ZM35.3131 38.1176C33.6711 38.122 32.4574 37.6316 31.5617 36.7198L30.135 38.1214C31.4718 39.4823 33.2364 40.1232 35.3184 40.1176L35.3131 38.1176ZM31.5617 36.7198C30.6631 35.805 30.124 34.4824 30.0478 32.6284L28.0495 32.7106C28.1402 34.9187 28.801 36.7635 30.135 38.1214L31.5617 36.7198ZM30.0486 32.6589L30.0355 31.4285L28.0356 31.4497L28.0487 32.6801L30.0486 32.6589ZM30.0356 31.4364C30.0322 30.1539 30.2558 29.0848 30.6725 28.2016L28.8636 27.3484C28.2962 28.5512 28.0316 29.9248 28.0356 31.4418L30.0356 31.4364ZM30.6735 28.1995C31.0893 27.3124 31.6669 26.6617 32.4038 26.2095L31.3578 24.5049C30.2617 25.1775 29.4308 26.1385 28.8626 27.3505L30.6735 28.1995ZM32.4055 26.2085C33.1536 25.7474 34.0356 25.5018 35.0843 25.499L35.079 23.499C33.7058 23.5027 32.4539 23.8293 31.3561 24.5059L32.4055 26.2085ZM35.0843 25.499C36.7123 25.4947 37.8287 25.866 38.5678 26.4786L39.8441 24.9387C38.6258 23.929 36.9927 23.4939 35.079 23.499L35.0843 25.499ZM38.5734 26.4832C39.3024 27.0786 39.7922 28.011 39.9397 29.4305L41.929 29.2237C41.7424 27.428 41.0799 25.948 39.8385 24.9342L38.5734 26.4832ZM40.9317 28.3271L37.6309 28.336L37.6362 30.3359L40.937 30.3271L40.9317 28.3271ZM38.6224 29.1873C38.4863 28.2816 38.1699 27.4414 37.5202 26.8813L36.2144 28.3962C36.3478 28.5112 36.5421 28.8024 36.6446 29.4846L38.6224 29.1873ZM37.5202 26.8813C36.8869 26.3354 36.0674 26.1331 35.2032 26.1354L35.2085 28.1354C35.7766 28.1339 36.0647 28.2672 36.2144 28.3962L37.5202 26.8813ZM35.2032 26.1354C34 26.1386 33.022 26.6819 32.3739 27.696L34.0592 28.773C34.3447 28.3263 34.6929 28.1368 35.2085 28.1354L35.2032 26.1354ZM32.3739 27.696C31.7623 28.653 31.5151 29.9132 31.5119 31.3593L33.5119 31.3635C33.5147 30.1012 33.7372 29.2768 34.0592 28.773L32.3739 27.696ZM31.5119 31.3641L31.5142 32.2235L33.5142 32.2181L33.5119 31.3587L31.5119 31.3641ZM31.5142 32.2235C31.5182 33.7257 31.7712 35.0276 32.4171 35.9824L34.0736 34.8616C33.7522 34.3866 33.5178 33.5544 33.5142 32.2181L31.5142 32.2235ZM32.4231 35.991C33.1412 37.0287 34.2534 37.4837 35.5458 37.4802L35.5405 35.4803C34.7495 35.4824 34.3299 35.2319 34.0677 34.8529L32.4231 35.991ZM35.5458 37.4802C36.5628 37.4775 37.5156 37.2515 38.2089 36.6168L36.8585 35.1416C36.6816 35.3035 36.3072 35.4782 35.5405 35.4803L35.5458 37.4802ZM38.5337 35.8765L38.5279 33.6695L36.5279 33.6749L36.5337 35.8819L38.5337 35.8765ZM37.5252 32.6722L35.1424 32.6786L35.1477 34.6786L37.5305 34.6722L37.5252 32.6722ZM36.1451 33.6759L36.1388 31.3224L34.1388 31.3277L34.1451 33.6813L36.1451 33.6759ZM35.1415 32.3251L40.952 32.3095L40.9467 30.3095L35.1362 30.3251L35.1415 32.3251ZM39.9493 31.3122L39.9648 37.152L41.9648 37.1466L41.9493 31.3068L39.9493 31.3122Z" fill="black"/>
<path d="M85.5705 38.7875L85.5327 24.5688L89.5464 24.558C90.7834 24.5547 91.8778 24.8252 92.8298 25.3696C93.7818 25.9139 94.5163 26.6899 95.0333 27.6976C95.5568 28.7054 95.8235 29.8635 95.8335 31.1721L95.8359 32.0803C95.8395 33.4214 95.5822 34.5972 95.064 35.6077C94.5524 36.6182 93.8155 37.395 92.8534 37.9379C91.8978 38.4808 90.782 38.7605 89.506 38.777L85.5705 38.7875ZM87.4118 26.1067L87.4414 37.2493L89.414 37.244C90.8593 37.2401 91.9812 36.7879 92.7796 35.8873C93.5845 34.9867 93.9847 33.7063 93.9803 32.0462L93.9781 31.2161C93.9739 29.6015 93.5897 28.3493 92.8256 27.4594C92.068 26.563 90.9926 26.1102 89.5993 26.1009L87.4118 26.1067ZM97.9194 33.3735C97.9167 32.3384 98.116 31.4068 98.5175 30.5789C98.9254 29.751 99.4902 29.1115 100.212 28.6603C100.94 28.2092 101.769 27.9823 102.7 27.9798C104.139 27.976 105.302 28.4709 106.19 29.4646C107.085 30.4583 107.534 31.782 107.539 33.4356L107.539 33.5626C107.542 34.5912 107.346 35.5162 106.951 36.3376C106.562 37.1524 106.001 37.7887 105.266 38.2464C104.538 38.7041 103.699 38.9342 102.749 38.9368C101.316 38.9406 100.153 38.4457 99.2584 37.452C98.3703 36.4583 97.9241 35.1411 97.9198 33.5005L97.9194 33.3735ZM99.7364 33.5835C99.7395 34.7554 100.012 35.6954 100.554 36.4036C101.103 37.1117 101.833 37.4646 102.745 37.4622C103.663 37.4597 104.391 37.0997 104.929 36.3821C105.468 35.658 105.735 34.6481 105.732 33.3526C105.729 32.1937 105.45 31.257 104.894 30.5423C104.346 29.8211 103.615 29.4617 102.704 29.4642C101.812 29.4666 101.094 29.8233 100.549 30.5344C100.004 31.2455 99.7329 32.2619 99.7364 33.5835ZM114.053 37.4318C114.698 37.4301 115.26 37.2333 115.741 36.8414C116.222 36.4495 116.488 35.9605 116.538 35.3744L118.247 35.3698C118.216 35.9754 118.009 36.5521 117.627 37.1C117.244 37.6479 116.731 38.0855 116.087 38.4127C115.45 38.7399 114.773 38.9045 114.057 38.9064C112.618 38.9103 111.471 38.4349 110.616 37.4801C109.767 36.5188 109.34 35.2049 109.336 33.5382L109.335 33.2355C109.332 32.2068 109.519 31.2916 109.894 30.4898C110.27 29.6881 110.808 29.0649 111.51 28.6203C112.219 28.1757 113.055 27.9521 114.018 27.9495C115.203 27.9463 116.187 28.2985 116.97 29.006C117.76 29.7135 118.182 30.6336 118.237 31.7663L116.529 31.7709C116.475 31.0874 116.213 30.5282 115.743 30.0933C115.279 29.6518 114.706 29.432 114.022 29.4338C113.104 29.4363 112.392 29.7703 111.886 30.4357C111.387 31.0946 111.139 32.049 111.142 33.299L111.143 33.6408C111.146 34.8582 111.399 35.7951 111.902 36.4513C112.405 37.1075 113.122 37.4343 114.053 37.4318ZM126.808 37.632C126.107 38.4607 125.076 38.8769 123.715 38.8806C122.589 38.8836 121.729 38.5604 121.135 37.9109C120.547 37.2549 120.248 36.2857 120.238 35.0031L120.22 28.1282L122.027 28.1233L122.045 34.9495C122.049 36.551 122.702 37.3501 124.004 37.3466C125.384 37.3429 126.301 36.8261 126.754 35.7962L126.734 28.1107L128.54 28.1059L128.568 38.6722L126.85 38.6768L126.808 37.632ZM132.993 28.0939L133.045 29.2657C133.818 28.3521 134.861 27.8936 136.176 27.8901C137.654 27.8861 138.662 28.4498 139.199 29.5812C139.549 29.0724 140.003 28.6611 140.562 28.3471C141.128 28.033 141.795 27.875 142.563 27.8729C144.881 27.8667 146.063 29.0908 146.108 31.5451L146.127 38.6252L144.32 38.63L144.302 31.6574C144.3 30.9022 144.126 30.3395 143.78 29.9693C143.434 29.5926 142.854 29.4054 142.04 29.4076C141.369 29.4094 140.813 29.6127 140.372 30.0175C139.93 30.4158 139.674 30.9536 139.604 31.6309L139.623 38.6426L137.807 38.6475L137.788 31.7237C137.784 30.1872 137.03 29.421 135.526 29.425C134.341 29.4282 133.532 29.9349 133.099 30.9452L133.119 38.66L131.312 38.6649L131.284 28.0985L132.993 28.0939ZM153.247 38.8014C151.814 38.8052 150.648 38.3396 149.747 37.4045C148.846 36.4629 148.393 35.2044 148.389 33.6288L148.388 33.2968C148.385 32.2486 148.581 31.3139 148.976 30.4925C149.378 29.6646 149.936 29.0186 150.651 28.5544C151.372 28.0837 152.153 27.8472 152.993 27.845C154.367 27.8413 155.435 28.2909 156.2 29.1938C156.964 30.0967 157.348 31.3913 157.352 33.0775L157.354 33.8294L150.196 33.8486C150.225 34.8902 150.53 35.7325 151.111 36.3755C151.699 37.0119 152.442 37.3289 153.34 37.3265C153.978 37.3248 154.518 37.1931 154.96 36.9315C155.402 36.6699 155.789 36.3239 156.12 35.8933L157.225 36.7497C156.344 38.1127 155.017 38.7966 153.247 38.8014ZM152.997 29.3294C152.268 29.3313 151.656 29.5999 151.163 30.1351C150.67 30.6637 150.366 31.4067 150.251 32.3641L155.544 32.3499L155.543 32.2132C155.489 31.2953 155.24 30.5864 154.796 30.0863C154.352 29.5796 153.752 29.3273 152.997 29.3294ZM161.148 28.0184L161.21 29.3464C162.014 28.3286 163.068 27.818 164.37 27.8145C166.603 27.8085 167.732 29.0652 167.759 31.5847L167.777 38.5671L165.971 38.572L165.952 31.5798C165.943 30.8181 165.766 30.2554 165.42 29.8918C165.081 29.5281 164.55 29.3472 163.827 29.3492C163.241 29.3507 162.727 29.5083 162.285 29.822C161.843 30.1357 161.499 30.5468 161.253 31.0553L161.273 38.5845L159.467 38.5894L159.439 28.023L161.148 28.0184ZM172.918 25.4283L172.925 27.9869L174.898 27.9816L174.901 29.3781L172.929 29.3833L172.946 35.9361C172.947 36.3592 173.036 36.678 173.212 36.8924C173.389 37.1002 173.688 37.2036 174.111 37.2025C174.32 37.2019 174.606 37.1621 174.971 37.083L174.974 38.5478C174.5 38.6793 174.037 38.7456 173.588 38.7468C172.781 38.749 172.172 38.5065 171.76 38.0193C171.349 37.5321 171.142 36.8393 171.139 35.9409L171.122 29.3882L169.198 29.3933L169.194 27.9969L171.118 27.9917L171.111 25.4331L172.918 25.4283ZM183.568 38.5248C183.463 38.3167 183.378 37.9459 183.311 37.4122C182.474 38.2868 181.472 38.7257 180.307 38.7288C179.265 38.7316 178.408 38.4409 177.736 37.8568C177.071 37.2661 176.737 36.5183 176.734 35.6134C176.731 34.5131 177.146 33.6592 177.977 33.0515C178.816 32.4372 179.993 32.1281 181.51 32.124L183.268 32.1193L183.266 31.2892C183.264 30.6577 183.074 30.1569 182.695 29.7868C182.317 29.4103 181.76 29.2229 181.024 29.2249C180.379 29.2266 179.839 29.3909 179.404 29.7175C178.969 30.0442 178.752 30.4387 178.753 30.9009L176.937 30.9058C176.935 30.3785 177.119 29.8702 177.489 29.3809C177.865 28.8851 178.372 28.4931 179.01 28.2049C179.653 27.9167 180.359 27.7716 181.127 27.7696C182.345 27.7663 183.3 28.0697 183.991 28.6799C184.683 29.2835 185.043 30.1191 185.072 31.1867L185.085 36.05C185.088 37.02 185.213 37.7912 185.462 38.3634L185.463 38.5197L183.568 38.5248ZM180.566 37.1559C181.133 37.1543 181.67 37.0064 182.177 36.7121C182.684 36.4178 183.05 36.0359 183.277 35.5666L183.271 33.3986L181.855 33.4024C179.642 33.4083 178.537 34.0591 178.54 35.3546C178.542 35.9211 178.732 36.3633 179.11 36.6812C179.489 36.9992 179.974 37.1575 180.566 37.1559ZM190.34 25.3816L190.347 27.9402L192.319 27.9349L192.323 29.3313L190.35 29.3366L190.368 35.8893C190.369 36.3125 190.458 36.6313 190.634 36.8457C190.81 37.0535 191.11 37.1569 191.533 37.1558C191.742 37.1552 192.028 37.1154 192.392 37.0363L192.396 38.5011C191.921 38.6326 191.459 38.6989 191.01 38.7001C190.203 38.7023 189.593 38.4598 189.182 37.9726C188.77 37.4854 188.564 36.7926 188.561 35.8942L188.544 29.3415L186.62 29.3466L186.616 27.9502L188.54 27.945L188.533 25.3864L190.34 25.3816ZM196.429 38.4903L194.623 38.4951L194.595 27.9288L196.401 27.9239L196.429 38.4903ZM194.441 25.1264C194.44 24.8335 194.527 24.5858 194.703 24.3835C194.884 24.1812 195.151 24.0796 195.503 24.0787C195.854 24.0777 196.121 24.1779 196.304 24.3792C196.487 24.5806 196.579 24.8277 196.58 25.1207C196.58 25.4137 196.49 25.6581 196.308 25.8539C196.126 26.0497 195.86 26.148 195.508 26.149C195.156 26.1499 194.889 26.053 194.706 25.8581C194.53 25.6633 194.442 25.4194 194.441 25.1264ZM198.837 33.103C198.834 32.0678 199.034 31.1363 199.435 30.3084C199.843 29.4805 200.408 28.8409 201.129 28.3898C201.857 27.9386 202.687 27.7118 203.618 27.7093C205.056 27.7054 206.22 28.2003 207.108 29.1941C208.002 30.1878 208.452 31.5114 208.456 33.1651L208.457 33.292C208.459 34.3207 208.263 35.2457 207.868 36.067C207.48 36.8819 206.918 37.5182 206.184 37.9759C205.456 38.4335 204.617 38.6637 203.666 38.6662C202.234 38.67 201.071 38.1751 200.176 37.1814C199.288 36.1877 198.842 34.8705 198.837 33.2299L198.837 33.103ZM200.654 33.3129C200.657 34.4848 200.93 35.4248 201.472 36.133C202.021 36.8412 202.751 37.194 203.662 37.1916C204.58 37.1891 205.309 36.8291 205.847 36.1115C206.385 35.3874 206.653 34.3776 206.649 33.082C206.646 31.9232 206.367 30.9864 205.812 30.2717C205.263 29.5506 204.533 29.1912 203.622 29.1936C202.73 29.196 202.011 29.5528 201.466 30.2639C200.921 30.975 200.65 31.9913 200.654 33.3129ZM212.417 27.881L212.479 29.2089C213.284 28.1912 214.337 27.6805 215.639 27.677C217.872 27.671 219.002 28.9278 219.028 31.4473L219.047 38.4297L217.24 38.4345L217.221 31.4423C217.213 30.6806 217.036 30.118 216.69 29.7543C216.35 29.3906 215.819 29.2098 215.096 29.2117C214.51 29.2133 213.996 29.3709 213.555 29.6846C213.113 29.9983 212.769 30.4093 212.523 30.9178L212.543 38.4471L210.736 38.4519L210.708 27.8856L212.417 27.881ZM227.097 39.6288L225.544 39.6329L231.44 24.1776L232.983 24.1735L227.097 39.6288ZM253.195 33.8557L253.473 35.7299L253.869 34.0394L256.655 24.11L258.237 24.1058L261.008 34.0203L261.403 35.738L261.7 33.8231L263.882 24.0907L265.766 24.0856L262.357 38.3135L260.648 38.3181L257.691 27.9647L257.463 26.8813L257.242 27.9659L254.232 38.3353L252.523 38.3399L249.048 24.1304L250.923 24.1254L253.195 33.8557ZM269.393 29.0075C270.191 28.0223 271.231 27.528 272.514 27.5246C274.747 27.5186 275.877 28.7753 275.903 31.2948L275.921 38.2772L274.115 38.282L274.096 31.2899C274.088 30.5282 273.91 29.9655 273.564 29.6018C273.225 29.2381 272.694 29.0573 271.971 29.0592C271.385 29.0608 270.871 29.2184 270.429 29.5321C269.987 29.8458 269.644 30.2569 269.397 30.7653L269.417 38.2946L267.611 38.2995L267.571 23.2995L269.378 23.2947L269.393 29.0075ZM278.134 32.8904C278.131 31.8552 278.33 30.9237 278.732 30.0958C279.14 29.2679 279.704 28.6283 280.426 28.1772C281.154 27.726 281.983 27.4992 282.914 27.4967C284.353 27.4928 285.516 27.9877 286.405 28.9815C287.299 29.9752 287.749 31.2988 287.753 32.9525L287.753 33.0794C287.756 34.1081 287.56 35.0331 287.165 35.8544C286.776 36.6693 286.215 37.3056 285.481 37.7633C284.753 38.2209 283.913 38.4511 282.963 38.4536C281.531 38.4575 280.367 37.9625 279.473 36.9688C278.585 35.9751 278.138 34.6579 278.134 33.0173L278.134 32.8904ZM279.951 33.1003C279.954 34.2722 280.226 35.2122 280.769 35.9204C281.317 36.6286 282.047 36.9814 282.959 36.979C283.877 36.9765 284.605 36.6165 285.144 35.8989C285.682 35.1748 285.95 34.165 285.946 32.8694C285.943 31.7106 285.664 30.7738 285.109 30.0592C284.56 29.338 283.83 28.9786 282.918 28.981C282.026 28.9834 281.308 29.3402 280.763 30.0513C280.218 30.7624 279.947 31.7787 279.951 33.1003ZM289.771 24.324L289.576 27.9183L288.316 27.9216L288.313 23.2439L289.768 23.24L289.771 24.324ZM297.564 35.4164C297.563 34.9281 297.376 34.551 297.005 34.2851C296.639 34.0126 295.997 33.78 295.079 33.5871C294.167 33.3943 293.44 33.1618 292.899 32.8898C292.365 32.6178 291.967 32.2934 291.705 31.9165C291.45 31.5396 291.322 31.0907 291.321 30.5698C291.319 29.704 291.681 28.9706 292.409 28.3697C293.143 27.7687 294.08 27.4667 295.219 27.4637C296.417 27.4605 297.388 27.7671 298.131 28.3836C298.882 29.0001 299.258 29.7901 299.261 30.7536L297.444 30.7585C297.443 30.2637 297.23 29.8379 296.806 29.4809C296.389 29.124 295.861 28.9463 295.223 28.9481C294.565 28.9498 294.051 29.0944 293.681 29.3819C293.311 29.6693 293.126 30.0442 293.127 30.5064C293.128 30.9426 293.302 31.2709 293.648 31.4913C293.993 31.7118 294.615 31.9217 295.514 32.1211C296.42 32.3205 297.153 32.5594 297.714 32.8379C298.274 33.1163 298.689 33.4537 298.957 33.8502C299.231 34.2401 299.369 34.7182 299.371 35.2846C299.373 36.2286 298.997 36.9881 298.244 37.563C297.49 38.1315 296.511 38.4173 295.307 38.4205C294.46 38.4228 293.711 38.2751 293.059 37.9773C292.407 37.6796 291.895 37.2643 291.523 36.7314C291.157 36.1921 290.973 35.6099 290.971 34.9849L292.778 34.98C292.812 35.5854 293.054 36.0665 293.504 36.4234C293.961 36.7737 294.56 36.9479 295.303 36.9459C295.986 36.9441 296.533 36.8059 296.942 36.5314C297.358 36.2503 297.565 35.8786 297.564 35.4164ZM313.213 37.1323C312.512 37.961 311.482 38.3772 310.121 38.3808C308.995 38.3838 308.134 38.0606 307.54 37.4112C306.953 36.7552 306.654 35.7859 306.644 34.5034L306.626 27.6284L308.432 27.6236L308.45 34.4497C308.455 36.0513 309.108 36.8503 310.41 36.8468C311.79 36.8431 312.707 36.3263 313.16 35.2965L313.139 27.611L314.946 27.6061L314.974 38.1725L313.255 38.1771L313.213 37.1323ZM323.873 35.3459C323.871 34.8576 323.685 34.4805 323.313 34.2146C322.948 33.9421 322.306 33.7094 321.387 33.5166C320.475 33.3237 319.749 33.0913 319.208 32.8193C318.673 32.5473 318.275 32.2228 318.014 31.8459C317.759 31.469 317.631 31.0201 317.629 30.4993C317.627 29.6334 317.99 28.9 318.717 28.2991C319.451 27.6982 320.388 27.3962 321.527 27.3931C322.725 27.3899 323.696 27.6966 324.44 28.3131C325.19 28.9296 325.567 29.7196 325.569 30.6831L323.753 30.688C323.752 30.1932 323.539 29.7673 323.115 29.4104C322.697 29.0534 322.169 28.8758 321.531 28.8775C320.874 28.8793 320.36 29.0239 319.989 29.3113C319.619 29.5988 319.435 29.9736 319.436 30.4359C319.437 30.8721 319.61 31.2004 319.956 31.4208C320.302 31.6412 320.924 31.8512 321.823 32.0506C322.728 32.25 323.461 32.4889 324.022 32.7673C324.583 33.0458 324.997 33.3832 325.265 33.7796C325.54 34.1695 325.678 34.6477 325.679 35.2141C325.682 36.1581 325.306 36.9176 324.552 37.4925C323.799 38.0609 322.819 38.3468 321.615 38.35C320.769 38.3523 320.02 38.2045 319.368 37.9068C318.716 37.6091 318.204 37.1938 317.831 36.6609C317.465 36.1215 317.281 35.5393 317.28 34.9143L319.086 34.9095C319.121 35.5149 319.363 35.996 319.813 36.3529C320.27 36.7032 320.869 36.8774 321.611 36.8754C322.295 36.8735 322.841 36.7354 323.251 36.4608C323.667 36.1798 323.874 35.8081 323.873 35.3459ZM330.003 38.1322L328.197 38.137L328.168 27.5707L329.975 27.5658L330.003 38.1322ZM328.015 24.7683C328.014 24.4754 328.101 24.2277 328.276 24.0254C328.458 23.8231 328.725 23.7215 329.076 23.7206C329.428 23.7196 329.695 23.8198 329.878 24.0211C330.061 24.2225 330.152 24.4696 330.153 24.7626C330.154 25.0556 330.064 25.2999 329.882 25.4957C329.7 25.6915 329.433 25.7899 329.082 25.7909C328.73 25.7918 328.463 25.6949 328.28 25.5C328.104 25.3052 328.015 25.0613 328.015 24.7683ZM334.584 27.5535L334.647 28.8814C335.451 27.8636 336.505 27.353 337.807 27.3495C340.04 27.3435 341.169 28.6003 341.196 31.1197L341.214 38.1021L339.407 38.107L339.389 31.1148C339.38 30.3531 339.203 29.7904 338.857 29.4268C338.518 29.0631 337.986 28.8822 337.264 28.8842C336.678 28.8857 336.164 29.0434 335.722 29.3571C335.28 29.6707 334.936 30.0818 334.69 30.5903L334.71 38.1196L332.904 38.1244L332.876 27.558L334.584 27.5535ZM343.495 32.7249C343.49 31.0778 343.868 29.7682 344.627 28.7961C345.386 27.8175 346.394 27.3265 347.65 27.3231C348.939 27.3197 349.946 27.7727 350.672 28.6822L350.756 27.5101L352.407 27.5057L352.434 37.8181C352.438 39.1853 352.034 40.2639 351.222 41.0538C350.417 41.8437 349.331 42.2405 347.963 42.2442C347.202 42.2462 346.456 42.0855 345.726 41.7619C344.996 41.4384 344.438 40.9939 344.052 40.4285L344.987 39.342C345.764 40.297 346.713 40.7729 347.833 40.7699C348.711 40.7676 349.394 40.5184 349.881 40.0223C350.375 39.5261 350.62 38.8289 350.618 37.9304L350.616 37.0222C349.895 37.8575 348.91 38.2768 347.66 38.2802C346.423 38.2835 345.419 37.7881 344.648 36.7941C343.884 35.8 343.499 34.4436 343.495 32.7249ZM345.312 32.9251C345.315 34.1165 345.561 35.0534 346.052 35.7356C346.542 36.4114 347.226 36.7481 348.105 36.7458C349.244 36.7427 350.08 36.2229 350.611 35.1863L350.598 30.3621C350.042 29.3545 349.21 28.8521 348.104 28.8551C347.225 28.8575 346.539 29.2011 346.046 29.886C345.553 30.5709 345.308 31.584 345.312 32.9251Z" fill="black"/>
<path fill-rule="evenodd" clip-rule="evenodd" d="M1607.79 32.0949L1605.42 36.5813L1605.46 51.6312L1597.76 51.6519L1597.63 2.65204L1605.33 2.63139L1605.39 23.9813L1615.41 2.60437L1623.11 2.58373L1612.46 24.4524L1623.24 51.5836L1615.33 51.6048L1607.79 32.0949ZM1634.08 40.2845C1634.08 42.0578 1634.45 43.3051 1635.17 44.0265C1635.9 44.7479 1636.87 45.107 1638.08 45.1037C1639.3 45.1005 1640.26 44.7362 1640.98 44.011C1641.71 43.2857 1642.06 42.0364 1642.06 40.2631L1641.99 13.8032C1641.98 12.0298 1641.62 10.7825 1640.89 10.0611C1640.17 9.33968 1639.2 8.98061 1637.99 8.98387C1636.77 8.98712 1635.81 9.35138 1635.08 10.0767C1634.36 10.8019 1634 12.0512 1634.01 13.8245L1634.08 40.2845ZM1626.31 14.3352C1626.3 10.3685 1627.3 7.32087 1629.3 5.19215C1631.3 3.06343 1634.19 1.99402 1637.97 1.98389C1641.75 1.97376 1644.64 3.02765 1646.66 5.14561C1648.67 7.26356 1649.68 10.3058 1649.69 14.2725L1649.76 39.7524C1649.77 43.7191 1648.77 46.7667 1646.77 48.8955C1644.77 51.0242 1641.88 52.0936 1638.1 52.1037C1634.32 52.1138 1631.42 51.06 1629.41 48.942C1627.4 46.824 1626.39 43.7818 1626.38 39.8151L1626.31 14.3352ZM1662.32 15.9887L1662.41 51.4785L1655.48 51.4971L1655.35 2.49729L1665.01 2.47139L1673 31.7801L1672.92 2.45019L1679.78 2.4318L1679.91 51.4316L1672 51.4528L1662.32 15.9887ZM1685.15 14.1774C1685.14 10.2108 1686.08 7.16327 1687.96 5.03487C1689.85 2.90647 1692.68 1.83721 1696.46 1.82708C1700.24 1.81695 1703.08 2.871 1704.97 4.98927C1706.87 7.10754 1707.82 10.15 1707.83 14.1166L1707.83 15.6566L1700.55 15.6761L1700.55 13.6462C1700.54 11.8728 1700.2 10.6254 1699.52 9.90389C1698.85 9.18237 1697.9 8.82324 1696.69 8.82649C1695.47 8.82975 1694.53 9.19394 1693.85 9.91909C1693.18 10.6442 1692.84 11.8935 1692.85 13.6668C1692.85 15.3468 1693.23 16.8274 1693.98 18.1088C1694.73 19.3901 1695.67 20.6009 1696.79 21.7413C1697.91 22.8816 1699.12 24.0217 1700.4 25.1616C1701.69 26.3015 1702.9 27.5466 1704.02 28.8969C1705.14 30.2472 1706.08 31.7847 1706.83 33.5094C1707.58 35.234 1707.96 37.263 1707.97 39.5964C1707.98 43.563 1707.02 46.6106 1705.09 48.7391C1703.16 50.8676 1700.3 51.937 1696.52 51.9471C1692.74 51.9572 1689.88 50.9032 1687.94 48.7851C1685.99 46.6669 1685.02 43.6246 1685.01 39.6579L1685 36.6479L1692.28 36.6284L1692.29 40.1284C1692.29 41.9017 1692.66 43.1374 1693.38 43.8355C1694.11 44.5335 1695.08 44.8809 1696.29 44.8777C1697.51 44.8744 1698.47 44.5218 1699.19 43.8199C1699.92 43.118 1700.27 41.8803 1700.27 40.107C1700.26 38.427 1699.89 36.9464 1699.14 35.665C1698.39 34.3837 1697.45 33.1729 1696.33 32.0325C1695.2 30.8922 1694 29.7521 1692.71 28.6122C1691.43 27.4723 1690.22 26.2272 1689.1 24.8769C1687.98 23.5266 1687.04 21.9891 1686.29 20.2644C1685.54 18.5397 1685.16 16.5108 1685.15 14.1774ZM1710.83 2.34855L1734.63 2.28474L1734.65 9.28472L1726.6 9.3063L1726.71 51.3062L1719.01 51.3268L1718.9 9.32694L1710.85 9.34853L1710.83 2.34855ZM1755.01 51.2303C1754.91 50.9038 1754.82 50.6008 1754.73 50.321C1754.63 50.0413 1754.55 49.6915 1754.48 49.2717C1754.41 48.8519 1754.36 48.3153 1754.33 47.6621C1754.31 47.0088 1754.3 46.1922 1754.29 45.2122L1754.27 37.5122C1754.27 35.2255 1753.87 33.6166 1753.07 32.6854C1752.27 31.7542 1750.99 31.291 1749.22 31.2957L1746.56 31.3028L1746.61 51.2528L1738.91 51.2734L1738.78 2.27359L1750.4 2.24244C1754.41 2.23168 1757.32 3.15721 1759.12 5.01907C1760.92 6.88092 1761.83 9.70181 1761.84 13.4818L1761.85 17.3318C1761.86 22.3718 1760.19 25.6896 1756.84 27.2853C1758.8 28.0734 1760.14 29.3647 1760.87 31.1595C1761.6 32.9542 1761.97 35.1349 1761.97 37.7015L1761.99 45.2615C1762 46.4748 1762.05 47.5364 1762.14 48.4461C1762.24 49.3559 1762.47 50.2769 1762.85 51.2092L1755.01 51.2303ZM1746.5 9.25295L1746.54 24.3029L1749.55 24.2948C1750.99 24.2909 1752.12 23.9146 1752.94 23.1657C1753.75 22.4169 1754.16 21.0625 1754.15 19.1025L1754.14 14.2725C1754.14 12.4991 1753.82 11.2167 1753.19 10.425C1752.55 9.63338 1751.56 9.23938 1750.21 9.243L1746.5 9.25295ZM1775.06 2.17635L1775.16 39.9762C1775.16 41.7496 1775.53 42.9852 1776.25 43.6833C1776.98 44.3814 1777.95 44.7288 1779.16 44.7255C1780.38 44.7223 1781.34 44.3697 1782.06 43.6677C1782.79 42.9658 1783.14 41.7282 1783.14 39.9548L1783.04 2.15496L1790.32 2.13544L1790.42 39.4453C1790.43 43.412 1789.47 46.4595 1787.54 48.5881C1785.61 50.7166 1782.75 51.7859 1778.97 51.796C1775.19 51.8062 1772.33 50.7522 1770.39 48.634C1768.44 46.5159 1767.47 43.4735 1767.46 39.5069L1767.36 2.197L1775.06 2.17635ZM1817.4 2.06284L1841.2 1.99903L1841.22 8.99901L1833.17 9.02059L1833.28 51.0204L1825.58 51.0411L1825.47 9.04123L1817.42 9.06281L1817.4 2.06284Z" fill="#1A1A1A"/>
<path fill-rule="evenodd" clip-rule="evenodd" d="M1791.07 25.6369L1811 0.456024L1811.13 50.7106L1791.07 25.6369Z" fill="#1A1A1A"/>
</svg>
