<svg width="629" height="654" viewBox="0 0 629 654" fill="none" xmlns="http://www.w3.org/2000/svg">
<path d="M425.27 757.378H332.73C327.778 757.342 322.987 755.623 319.142 752.503C315.297 749.384 312.628 745.049 311.573 740.211L301.551 690.189C270.64 682.493 241.057 670.205 213.789 653.735L171.368 681.941C167.241 684.697 162.292 685.95 157.351 685.489C152.41 685.029 147.778 682.882 144.232 679.411L78.8054 613.887C75.2775 610.312 73.0991 605.624 72.6417 600.622C72.1843 595.62 73.4763 590.615 76.2973 586.46L104.405 544.297C87.9012 517.028 75.6215 487.417 67.9837 456.47L17.9189 446.46C13.0555 445.422 8.69127 442.757 5.54655 438.905C2.40183 435.052 0.664595 430.243 0.621582 425.27V332.73C0.657569 327.779 2.37675 322.987 5.49662 319.142C8.61648 315.297 12.9514 312.628 17.7892 311.573L67.9081 301.519C75.5474 270.578 87.8232 240.971 104.319 213.703L76.0594 171.433C73.2976 167.304 72.0415 162.351 72.5022 157.405C72.9629 152.459 75.1123 147.823 78.5892 144.276L144.113 78.7622C147.681 75.2286 152.365 73.0426 157.365 72.5773C162.365 72.112 167.371 73.3963 171.53 76.2109L213.692 104.373C240.978 87.8752 270.588 75.5686 301.53 67.865L311.541 17.919C312.578 13.0556 315.243 8.69139 319.095 5.54667C322.948 2.40195 327.757 0.664717 332.73 0.621704H425.27C430.221 0.657691 435.013 2.37687 438.858 5.49674C442.703 8.61661 445.372 12.9516 446.427 17.7893L456.449 67.8109C487.442 75.4821 517.096 87.798 544.405 104.341L586.568 76.0704C590.696 73.3086 595.649 72.0524 600.595 72.5131C605.541 72.9738 610.177 75.1233 613.724 78.6001L679.249 144.114C682.793 147.675 684.987 152.36 685.453 157.363C685.918 162.366 684.627 167.375 681.8 171.53L653.692 213.789C670.168 241.05 682.456 270.63 690.146 301.541L739.995 311.541C744.874 312.561 749.258 315.219 752.42 319.072C755.582 322.926 757.331 327.745 757.378 332.73V425.27C757.342 430.222 755.623 435.013 752.503 438.858C749.383 442.703 745.049 445.372 740.211 446.427L690.189 456.46C682.499 487.37 670.211 516.95 653.735 544.211L681.951 586.633C684.706 590.76 685.957 595.71 685.495 600.651C685.032 605.592 682.884 610.223 679.411 613.768L613.886 679.292C610.318 682.824 605.634 685.009 600.635 685.474C595.636 685.939 590.63 684.656 586.47 681.843L544.308 653.66C517.016 670.197 487.38 682.513 456.405 690.189L446.459 740.081C445.422 744.945 442.757 749.309 438.905 752.454C435.052 755.598 430.243 757.335 425.27 757.378ZM213.595 630.06C215.618 630.054 217.602 630.624 219.313 631.703C248.135 650.01 279.898 663.209 313.205 670.719C315.243 671.18 317.104 672.222 318.562 673.719C320.02 675.215 321.013 677.102 321.422 679.151L332.741 735.757H425.173L436.611 679.151C437.02 677.101 438.015 675.213 439.475 673.716C440.935 672.22 442.798 671.178 444.838 670.719C478.146 663.247 509.904 650.049 538.697 631.714C540.493 630.618 542.56 630.05 544.663 630.075C546.767 630.1 548.82 630.716 550.589 631.854L598.578 663.962L663.962 598.6L632.438 551.303C632.031 550.81 631.669 550.282 631.357 549.724C630.416 548.034 629.945 546.123 629.995 544.189C630.044 542.255 630.612 540.37 631.638 538.73C649.95 509.911 663.149 478.147 670.654 444.838C671.115 442.8 672.157 440.939 673.654 439.481C675.15 438.023 677.037 437.03 679.086 436.622L735.757 425.26V332.73L679.151 321.378C677.102 320.97 675.215 319.977 673.719 318.519C672.222 317.061 671.18 315.2 670.719 313.162C663.214 279.853 650.015 248.089 631.703 219.27C630.668 217.635 630.091 215.753 630.032 213.819C629.973 211.885 630.434 209.971 631.368 208.276C631.744 207.585 632.197 206.94 632.719 206.351L663.94 159.4L598.589 93.9947L550.632 126.146C548.864 127.286 546.81 127.904 544.707 127.929C542.603 127.954 540.535 127.385 538.741 126.287C509.947 107.951 478.189 94.753 444.881 87.2812C442.841 86.8218 440.978 85.7807 439.518 84.284C438.058 82.7874 437.063 80.8993 436.654 78.8487L425.259 22.2433H332.73L321.389 78.8487C320.981 80.8979 319.988 82.785 318.53 84.2815C317.071 85.778 315.211 86.8199 313.173 87.2812C279.865 94.7915 248.102 107.99 219.281 126.297C217.514 127.416 215.46 127.999 213.368 127.974C211.277 127.949 209.237 127.318 207.497 126.157L159.389 94.0487L93.9946 159.4L126.157 207.487C127.318 209.227 127.949 211.266 127.974 213.358C127.999 215.449 127.416 217.503 126.297 219.27C107.991 248.069 94.8226 279.827 87.3783 313.13C86.9 315.285 85.7734 317.242 84.15 318.738C82.5266 320.234 80.4842 321.197 78.2973 321.497L22.2432 332.741V425.27L78.6648 436.578C80.7727 436.951 82.7241 437.936 84.2756 439.411C85.8272 440.885 86.91 442.784 87.3892 444.87C94.8338 478.173 108.002 509.931 126.308 538.73C127.427 540.495 128.009 542.546 127.986 544.636C127.963 546.725 127.335 548.763 126.178 550.503L94.1783 598.6L159.422 664.016L206.719 632.47C208.663 630.912 211.081 630.061 213.573 630.06H213.595Z" fill="#EAEAEA"/>
</svg>
